<svg width="514" height="96" viewBox="0 0 514 96" fill="none" xmlns="http://www.w3.org/2000/svg">
<g filter="url(#filter0_d_201_135)">
<mask id="path-1-outside-1_201_135" maskUnits="userSpaceOnUse" x="6" y="6" width="498" height="80" fill="black">
<rect fill="white" x="6" y="6" width="498" height="80"/>
<path d="M51.8921 9L46.0244 38.7121C45.259 42.6488 44.8763 46 44.8763 48.7657C44.8763 50.5098 45.0251 52.0047 45.3228 53.2505C46.5984 58.6323 49.2027 61.3232 53.1359 61.3232C57.0264 61.3232 60.6725 58.6323 64.0741 53.2505C66.2002 49.8869 67.8797 45.0407 69.1128 38.7121C69.8781 34.7754 70.2608 31.4367 70.2608 28.696C70.2608 26.9768 70.112 25.4694 69.8144 24.1737C68.8151 19.8633 66.6254 16.6616 63.245 14.5687L66.7529 9H67.0718C71.3451 10.8438 74.279 14.93 75.8735 21.2586C76.3837 23.2768 76.6388 25.569 76.6388 28.1354C76.6388 31.1751 76.2562 34.7007 75.4908 38.7121C74.0664 45.8879 71.8978 51.7057 68.9852 56.1657C63.9466 63.8397 58.2383 67.6768 51.8603 67.6768C45.6098 67.6768 41.4428 63.9269 39.3593 56.4273C34.2995 63.9269 28.6443 67.6768 22.3938 67.6768C16.0371 67.6768 11.8382 63.8397 9.79725 56.1657C9.26575 54.1724 9 51.8926 9 49.3263C9 46.1869 9.39331 42.6488 10.1799 38.7121C11.6469 31.337 13.8048 25.8182 16.6536 22.1556C18.4395 19.8633 20.204 18.0943 21.9474 16.8485H12.8906L12.9863 16.4747L16.5579 10.4949H34.1932L34.0975 10.8687L30.5258 16.8485C27.4218 17.9946 24.6793 20.3367 22.2982 23.8747C19.6194 27.8364 17.706 32.7822 16.5579 38.7121C15.7926 42.6488 15.4099 46 15.4099 48.7657C15.4099 50.5098 15.5587 52.0047 15.8564 53.2505C17.132 58.6323 19.7363 61.3232 23.6694 61.3232C27.56 61.3232 31.2061 58.6323 34.6077 53.2505C36.7337 49.8869 38.4133 45.0407 39.6464 38.7121L44.8444 12.3636L51.5732 9H51.8921Z"/>
<path d="M88.3425 46.3737C87.7472 49.4633 87.4496 51.9673 87.4496 53.8859C87.4496 54.8576 87.524 55.6923 87.6728 56.3899C88.4807 59.6788 90.0752 61.3232 92.4563 61.3232C94.8374 61.3232 97.0697 59.6788 99.1532 56.3899C100.471 54.297 101.577 50.9582 102.47 46.3737C103.065 43.3091 103.363 40.8175 103.363 38.899C103.363 37.8774 103.278 37.0303 103.108 36.3576C102.385 33.0687 100.79 31.4242 98.3241 31.4242C95.8367 31.4242 93.5725 33.0936 91.5315 36.4323C90.2984 38.4505 89.2354 41.7643 88.3425 46.3737ZM81.9645 46.4111C82.985 41.1788 84.5795 36.9431 86.748 33.704C90.5961 27.9485 94.88 25.0707 99.5997 25.0707C104.319 25.0707 107.455 27.9485 109.007 33.704C109.432 35.2737 109.645 37.0428 109.645 39.0111C109.645 41.1788 109.379 43.633 108.848 46.3737C107.764 51.7057 106.169 55.929 104.064 59.0434C100.174 64.799 95.8792 67.6768 91.1807 67.6768C86.546 67.6768 83.4102 64.8114 81.7731 59.0808C81.3479 57.5609 81.1353 55.8667 81.1353 53.998C81.1353 51.8054 81.4117 49.2764 81.9645 46.4111Z"/>
<path d="M114.11 68.4242L118.447 46.3737C119.467 41.1663 121.062 36.9431 123.23 33.704C127.078 27.9485 131.362 25.0707 136.082 25.0707H140.387L140.291 25.4444L136.688 31.4242H134.806C132.404 31.4242 130.172 33.0687 128.109 36.3576C126.834 38.4007 125.739 41.7394 124.825 46.3737L121.157 65.0606L114.429 68.4242H114.11Z"/>
<path d="M173.33 9L165.963 46.3737C164.942 51.5811 163.348 55.8044 161.179 59.0434C157.331 64.799 153.037 67.6768 148.296 67.6768C143.64 67.6768 140.504 64.799 138.888 59.0434C138.463 57.5236 138.25 55.7795 138.25 53.8111C138.25 51.6185 138.516 49.1394 139.048 46.3737C140.238 40.3441 143.268 35.6101 148.136 32.1717H140.26L140.323 31.798L143.895 25.8182H158.82L158.756 26.1919L155.184 32.1717C152.208 34.2646 150.05 36.3077 148.71 38.301C147.116 40.6929 146.021 43.3838 145.426 46.3737C144.83 49.3886 144.533 51.8552 144.533 53.7737C144.533 54.7953 144.618 55.6673 144.788 56.3899C145.553 59.6788 147.148 61.3232 149.571 61.3232C151.995 61.3232 154.238 59.6663 156.3 56.3525C157.555 54.3343 158.639 51.0081 159.553 46.3737L166.282 12.3636L173.011 9H173.33Z"/>
<path d="M173.011 59.1556C173.011 59.1556 174.871 58.2337 178.591 56.3899H178.91C179.676 59.6788 181.27 61.3232 183.694 61.3232C186.011 61.3232 187.988 60.4263 189.625 58.6323C190.943 57.1872 191.783 55.5801 192.145 53.8111C192.251 53.2879 192.304 52.7896 192.304 52.3162C192.304 51.17 191.985 50.2232 191.347 49.4758C190.412 48.3795 188.903 47.632 186.819 47.2333C184.162 46.735 182.142 45.7882 180.76 44.3929C179.357 42.9727 178.655 41.1165 178.655 38.8242C178.655 38.002 178.751 37.0926 178.942 36.096C179.601 32.6825 181.525 29.8172 184.714 27.5C186.947 25.8805 189.306 25.0707 191.794 25.0707C195.982 25.0707 198.555 27.4377 199.511 32.1717L193.931 34.9374H193.612C193.101 32.5953 192.07 31.4242 190.518 31.4242C189.243 31.4242 188.137 31.798 187.202 32.5455C186.096 33.4175 185.373 34.6508 185.033 36.2455C184.948 36.6441 184.906 37.0054 184.906 37.3293C184.906 38.3259 185.256 39.0609 185.958 39.5343C186.936 40.2071 188.477 40.8175 190.582 41.3657C193.24 42.0384 195.259 43.1471 196.641 44.6919C197.981 46.1869 198.65 48.205 198.65 50.7465C198.65 51.7929 198.533 52.9515 198.299 54.2222C197.704 57.4364 195.876 60.5259 192.814 63.4909C189.923 66.2815 186.458 67.6768 182.418 67.6768C177.656 67.6768 174.52 64.8364 173.011 59.1556Z"/>
<path d="M230.636 68.4242L238.003 31.0505C239.023 25.868 240.618 21.6448 242.786 18.3808C246.613 12.6253 250.886 9.74747 255.606 9.74747H259.911L259.847 10.1212L256.244 16.101H254.362C252.002 16.101 249.77 17.7455 247.665 21.0343C246.538 22.8034 245.539 25.6438 244.668 29.5556H256.02L255.957 29.9293L252.385 35.9091H243.424L237.684 65.0606L230.955 68.4242H230.636Z"/>
<path d="M263.228 46.3737C262.632 49.4633 262.335 51.9673 262.335 53.8859C262.335 54.8576 262.409 55.6923 262.558 56.3899C263.366 59.6788 264.96 61.3232 267.341 61.3232C269.723 61.3232 271.955 59.6788 274.038 56.3899C275.356 54.297 276.462 50.9582 277.355 46.3737C277.95 43.3091 278.248 40.8175 278.248 38.899C278.248 37.8774 278.163 37.0303 277.993 36.3576C277.27 33.0687 275.675 31.4242 273.209 31.4242C270.722 31.4242 268.458 33.0936 266.417 36.4323C265.184 38.4505 264.121 41.7643 263.228 46.3737ZM256.85 46.4111C257.87 41.1788 259.465 36.9431 261.633 33.704C265.481 27.9485 269.765 25.0707 274.485 25.0707C279.205 25.0707 282.34 27.9485 283.892 33.704C284.318 35.2737 284.53 37.0428 284.53 39.0111C284.53 41.1788 284.264 43.633 283.733 46.3737C282.649 51.7057 281.054 55.929 278.949 59.0434C275.059 64.799 270.764 67.6768 266.066 67.6768C261.431 67.6768 258.295 64.8114 256.658 59.0808C256.233 57.5609 256.02 55.8667 256.02 53.998C256.02 51.8054 256.297 49.2764 256.85 46.4111Z"/>
<path d="M288.995 68.4242L293.332 46.3737C294.352 41.1663 295.947 36.9431 298.115 33.704C301.963 27.9485 306.247 25.0707 310.967 25.0707H315.272L315.177 25.4444L311.573 31.4242H309.691C307.289 31.4242 305.057 33.0687 302.995 36.3576C301.719 38.4007 300.624 41.7394 299.71 46.3737L296.043 65.0606L289.314 68.4242H288.995Z"/>
<path d="M347.226 68.4242C342.783 68.4242 340.561 66.5556 340.561 62.8182C340.561 62.0956 340.646 61.2983 340.816 60.4263L350.288 12.3636L357.016 9H357.335L347.194 60.4263C346.982 61.5226 347.386 62.0707 348.406 62.0707H350.862L350.798 62.4444L347.226 68.4242Z"/>
<path d="M368.369 14.3444C368.624 13.0737 369.209 11.9899 370.123 11.0929C371.037 10.196 372.037 9.74747 373.121 9.74747C374.205 9.74747 375.024 10.196 375.576 11.0929C375.98 11.7407 376.182 12.4508 376.182 13.2232C376.182 13.5222 376.14 13.896 376.055 14.3444C375.736 15.665 375.151 16.7364 374.301 17.5586C373.365 18.4556 372.355 18.904 371.271 18.904C370.208 18.904 369.39 18.4431 368.816 17.5212C368.433 16.9232 368.242 16.263 368.242 15.5404C368.242 15.1916 368.284 14.7929 368.369 14.3444ZM366.36 68.4242C361.917 68.4242 359.695 66.5556 359.695 62.8182C359.695 62.0956 359.78 61.2983 359.95 60.4263L366.392 27.6869L373.121 24.3232H373.44L366.328 60.4263C366.116 61.5226 366.52 62.0707 367.54 62.0707H369.996L369.932 62.4444L366.36 68.4242Z"/>
<path d="M384.888 27.6869L391.617 24.3232H391.936L387.599 46.3737C387.004 49.4633 386.706 51.9673 386.706 53.8859C386.706 54.8576 386.78 55.6923 386.929 56.3899C387.737 59.6788 389.332 61.3232 391.713 61.3232C394.115 61.3232 396.347 59.6788 398.41 56.3899C399.706 54.3468 400.812 51.0081 401.726 46.3737C402.279 43.6081 402.555 41.1788 402.555 39.0859C402.555 38.0892 402.492 37.1798 402.364 36.3576C401.854 33.1185 400.429 30.9633 398.091 29.8919L401.567 24.3232H401.886C405.223 26.0175 407.36 29.1444 408.296 33.704C408.657 35.4481 408.838 37.2919 408.838 39.2354C408.838 41.4529 408.593 43.8323 408.104 46.3737C407.126 51.4815 405.521 55.7047 403.289 59.0434C399.462 64.799 395.178 67.6768 390.437 67.6768C385.675 67.6768 382.539 64.799 381.03 59.0434C380.626 57.4987 380.424 55.7545 380.424 53.8111C380.424 51.6185 380.689 49.1394 381.221 46.3737L384.888 27.6869Z"/>
<path d="M424.942 14.3444C425.197 13.0737 425.782 11.9899 426.696 11.0929C427.61 10.196 428.61 9.74747 429.694 9.74747C430.778 9.74747 431.597 10.196 432.149 11.0929C432.553 11.7407 432.755 12.4508 432.755 13.2232C432.755 13.5222 432.713 13.896 432.628 14.3444C432.309 15.665 431.724 16.7364 430.874 17.5586C429.938 18.4556 428.928 18.904 427.844 18.904C426.781 18.904 425.963 18.4431 425.389 17.5212C425.006 16.9232 424.815 16.263 424.815 15.5404C424.815 15.1916 424.857 14.7929 424.942 14.3444ZM422.933 68.4242C418.49 68.4242 416.268 66.5556 416.268 62.8182C416.268 62.0956 416.353 61.2983 416.523 60.4263L422.965 27.6869L429.694 24.3232H430.013L422.901 60.4263C422.689 61.5226 423.093 62.0707 424.113 62.0707H426.569L426.505 62.4444L422.933 68.4242Z"/>
<path d="M454.632 60.5758C454.632 60.5758 457.257 60.5758 462.509 60.5758L462.445 60.9495L458.873 66.9293H443.949L444.012 66.5556L447.584 60.5758C450.582 58.4579 452.74 56.4148 454.058 54.4465C455.674 52.0047 456.768 49.3138 457.342 46.3737C457.938 43.3091 458.235 40.8175 458.235 38.899C458.235 37.8774 458.15 37.0303 457.98 36.3576C457.257 33.0687 455.663 31.4242 453.197 31.4242C450.794 31.4242 448.562 33.0687 446.5 36.3576C445.224 38.4007 444.129 41.7394 443.215 46.3737L439.548 65.0606L432.819 68.4242H432.5L436.837 46.3737C437.858 41.1663 439.452 36.9431 441.621 33.704C445.469 27.9485 449.753 25.0707 454.472 25.0707C459.32 25.0707 462.456 27.9485 463.88 33.704C464.305 35.4232 464.518 37.2795 464.518 39.2727C464.518 41.4902 464.263 43.8572 463.752 46.3737C462.562 52.4034 459.522 57.1374 454.632 60.5758Z"/>
<path d="M482.536 67.6768C477.88 67.6768 474.744 64.799 473.128 59.0434C472.703 57.5236 472.49 55.7919 472.49 53.8485C472.49 51.5811 472.767 49.0896 473.319 46.3737C474.34 41.1663 475.934 36.9431 478.103 33.704C481.951 27.9485 486.235 25.0707 490.955 25.0707C495.674 25.0707 498.81 27.9485 500.362 33.704C500.787 35.2737 501 37.0428 501 39.0111C501 41.2286 500.734 43.6828 500.203 46.3737L497.173 61.697C496.174 66.8047 494.59 71.0279 492.422 74.3667C488.68 80.1222 484.396 83 479.57 83H471.884L471.948 82.6263L475.552 76.6465H480.814C483.45 76.6465 485.682 75.002 487.51 71.7131C488.892 69.2215 489.987 65.8828 490.795 61.697L493.825 46.3737C494.42 43.3589 494.718 40.8923 494.718 38.9737C494.718 37.9522 494.633 37.0801 494.463 36.3576C493.697 33.0687 492.103 31.4242 489.679 31.4242C487.255 31.4242 485.012 33.0811 482.95 36.3949C481.675 38.438 480.59 41.7643 479.697 46.3737C479.102 49.4384 478.804 51.9424 478.804 53.8859C478.804 54.8327 478.879 55.6673 479.028 56.3899C479.793 59.6539 481.366 61.2983 483.747 61.3232H486.203L486.107 61.697L482.536 67.6768Z"/>
</mask>
<path d="M51.8921 9L46.0244 38.7121C45.259 42.6488 44.8763 46 44.8763 48.7657C44.8763 50.5098 45.0251 52.0047 45.3228 53.2505C46.5984 58.6323 49.2027 61.3232 53.1359 61.3232C57.0264 61.3232 60.6725 58.6323 64.0741 53.2505C66.2002 49.8869 67.8797 45.0407 69.1128 38.7121C69.8781 34.7754 70.2608 31.4367 70.2608 28.696C70.2608 26.9768 70.112 25.4694 69.8144 24.1737C68.8151 19.8633 66.6254 16.6616 63.245 14.5687L66.7529 9H67.0718C71.3451 10.8438 74.279 14.93 75.8735 21.2586C76.3837 23.2768 76.6388 25.569 76.6388 28.1354C76.6388 31.1751 76.2562 34.7007 75.4908 38.7121C74.0664 45.8879 71.8978 51.7057 68.9852 56.1657C63.9466 63.8397 58.2383 67.6768 51.8603 67.6768C45.6098 67.6768 41.4428 63.9269 39.3593 56.4273C34.2995 63.9269 28.6443 67.6768 22.3938 67.6768C16.0371 67.6768 11.8382 63.8397 9.79725 56.1657C9.26575 54.1724 9 51.8926 9 49.3263C9 46.1869 9.39331 42.6488 10.1799 38.7121C11.6469 31.337 13.8048 25.8182 16.6536 22.1556C18.4395 19.8633 20.204 18.0943 21.9474 16.8485H12.8906L12.9863 16.4747L16.5579 10.4949H34.1932L34.0975 10.8687L30.5258 16.8485C27.4218 17.9946 24.6793 20.3367 22.2982 23.8747C19.6194 27.8364 17.706 32.7822 16.5579 38.7121C15.7926 42.6488 15.4099 46 15.4099 48.7657C15.4099 50.5098 15.5587 52.0047 15.8564 53.2505C17.132 58.6323 19.7363 61.3232 23.6694 61.3232C27.56 61.3232 31.2061 58.6323 34.6077 53.2505C36.7337 49.8869 38.4133 45.0407 39.6464 38.7121L44.8444 12.3636L51.5732 9H51.8921Z" fill="#DC3545"/>
<path d="M88.3425 46.3737C87.7472 49.4633 87.4496 51.9673 87.4496 53.8859C87.4496 54.8576 87.524 55.6923 87.6728 56.3899C88.4807 59.6788 90.0752 61.3232 92.4563 61.3232C94.8374 61.3232 97.0697 59.6788 99.1532 56.3899C100.471 54.297 101.577 50.9582 102.47 46.3737C103.065 43.3091 103.363 40.8175 103.363 38.899C103.363 37.8774 103.278 37.0303 103.108 36.3576C102.385 33.0687 100.79 31.4242 98.3241 31.4242C95.8367 31.4242 93.5725 33.0936 91.5315 36.4323C90.2984 38.4505 89.2354 41.7643 88.3425 46.3737ZM81.9645 46.4111C82.985 41.1788 84.5795 36.9431 86.748 33.704C90.5961 27.9485 94.88 25.0707 99.5997 25.0707C104.319 25.0707 107.455 27.9485 109.007 33.704C109.432 35.2737 109.645 37.0428 109.645 39.0111C109.645 41.1788 109.379 43.633 108.848 46.3737C107.764 51.7057 106.169 55.929 104.064 59.0434C100.174 64.799 95.8792 67.6768 91.1807 67.6768C86.546 67.6768 83.4102 64.8114 81.7731 59.0808C81.3479 57.5609 81.1353 55.8667 81.1353 53.998C81.1353 51.8054 81.4117 49.2764 81.9645 46.4111Z" fill="#DC3545"/>
<path d="M114.11 68.4242L118.447 46.3737C119.467 41.1663 121.062 36.9431 123.23 33.704C127.078 27.9485 131.362 25.0707 136.082 25.0707H140.387L140.291 25.4444L136.688 31.4242H134.806C132.404 31.4242 130.172 33.0687 128.109 36.3576C126.834 38.4007 125.739 41.7394 124.825 46.3737L121.157 65.0606L114.429 68.4242H114.11Z" fill="#DC3545"/>
<path d="M173.33 9L165.963 46.3737C164.942 51.5811 163.348 55.8044 161.179 59.0434C157.331 64.799 153.037 67.6768 148.296 67.6768C143.64 67.6768 140.504 64.799 138.888 59.0434C138.463 57.5236 138.25 55.7795 138.25 53.8111C138.25 51.6185 138.516 49.1394 139.048 46.3737C140.238 40.3441 143.268 35.6101 148.136 32.1717H140.26L140.323 31.798L143.895 25.8182H158.82L158.756 26.1919L155.184 32.1717C152.208 34.2646 150.05 36.3077 148.71 38.301C147.116 40.6929 146.021 43.3838 145.426 46.3737C144.83 49.3886 144.533 51.8552 144.533 53.7737C144.533 54.7953 144.618 55.6673 144.788 56.3899C145.553 59.6788 147.148 61.3232 149.571 61.3232C151.995 61.3232 154.238 59.6663 156.3 56.3525C157.555 54.3343 158.639 51.0081 159.553 46.3737L166.282 12.3636L173.011 9H173.33Z" fill="#DC3545"/>
<path d="M173.011 59.1556C173.011 59.1556 174.871 58.2337 178.591 56.3899H178.91C179.676 59.6788 181.27 61.3232 183.694 61.3232C186.011 61.3232 187.988 60.4263 189.625 58.6323C190.943 57.1872 191.783 55.5801 192.145 53.8111C192.251 53.2879 192.304 52.7896 192.304 52.3162C192.304 51.17 191.985 50.2232 191.347 49.4758C190.412 48.3795 188.903 47.632 186.819 47.2333C184.162 46.735 182.142 45.7882 180.76 44.3929C179.357 42.9727 178.655 41.1165 178.655 38.8242C178.655 38.002 178.751 37.0926 178.942 36.096C179.601 32.6825 181.525 29.8172 184.714 27.5C186.947 25.8805 189.306 25.0707 191.794 25.0707C195.982 25.0707 198.555 27.4377 199.511 32.1717L193.931 34.9374H193.612C193.101 32.5953 192.07 31.4242 190.518 31.4242C189.243 31.4242 188.137 31.798 187.202 32.5455C186.096 33.4175 185.373 34.6508 185.033 36.2455C184.948 36.6441 184.906 37.0054 184.906 37.3293C184.906 38.3259 185.256 39.0609 185.958 39.5343C186.936 40.2071 188.477 40.8175 190.582 41.3657C193.24 42.0384 195.259 43.1471 196.641 44.6919C197.981 46.1869 198.65 48.205 198.65 50.7465C198.65 51.7929 198.533 52.9515 198.299 54.2222C197.704 57.4364 195.876 60.5259 192.814 63.4909C189.923 66.2815 186.458 67.6768 182.418 67.6768C177.656 67.6768 174.52 64.8364 173.011 59.1556Z" fill="#DC3545"/>
<path d="M230.636 68.4242L238.003 31.0505C239.023 25.868 240.618 21.6448 242.786 18.3808C246.613 12.6253 250.886 9.74747 255.606 9.74747H259.911L259.847 10.1212L256.244 16.101H254.362C252.002 16.101 249.77 17.7455 247.665 21.0343C246.538 22.8034 245.539 25.6438 244.668 29.5556H256.02L255.957 29.9293L252.385 35.9091H243.424L237.684 65.0606L230.955 68.4242H230.636Z" fill="#DC3545"/>
<path d="M263.228 46.3737C262.632 49.4633 262.335 51.9673 262.335 53.8859C262.335 54.8576 262.409 55.6923 262.558 56.3899C263.366 59.6788 264.96 61.3232 267.341 61.3232C269.723 61.3232 271.955 59.6788 274.038 56.3899C275.356 54.297 276.462 50.9582 277.355 46.3737C277.95 43.3091 278.248 40.8175 278.248 38.899C278.248 37.8774 278.163 37.0303 277.993 36.3576C277.27 33.0687 275.675 31.4242 273.209 31.4242C270.722 31.4242 268.458 33.0936 266.417 36.4323C265.184 38.4505 264.121 41.7643 263.228 46.3737ZM256.85 46.4111C257.87 41.1788 259.465 36.9431 261.633 33.704C265.481 27.9485 269.765 25.0707 274.485 25.0707C279.205 25.0707 282.34 27.9485 283.892 33.704C284.318 35.2737 284.53 37.0428 284.53 39.0111C284.53 41.1788 284.264 43.633 283.733 46.3737C282.649 51.7057 281.054 55.929 278.949 59.0434C275.059 64.799 270.764 67.6768 266.066 67.6768C261.431 67.6768 258.295 64.8114 256.658 59.0808C256.233 57.5609 256.02 55.8667 256.02 53.998C256.02 51.8054 256.297 49.2764 256.85 46.4111Z" fill="#DC3545"/>
<path d="M288.995 68.4242L293.332 46.3737C294.352 41.1663 295.947 36.9431 298.115 33.704C301.963 27.9485 306.247 25.0707 310.967 25.0707H315.272L315.177 25.4444L311.573 31.4242H309.691C307.289 31.4242 305.057 33.0687 302.995 36.3576C301.719 38.4007 300.624 41.7394 299.71 46.3737L296.043 65.0606L289.314 68.4242H288.995Z" fill="#DC3545"/>
<path d="M347.226 68.4242C342.783 68.4242 340.561 66.5556 340.561 62.8182C340.561 62.0956 340.646 61.2983 340.816 60.4263L350.288 12.3636L357.016 9H357.335L347.194 60.4263C346.982 61.5226 347.386 62.0707 348.406 62.0707H350.862L350.798 62.4444L347.226 68.4242Z" fill="#DC3545"/>
<path d="M368.369 14.3444C368.624 13.0737 369.209 11.9899 370.123 11.0929C371.037 10.196 372.037 9.74747 373.121 9.74747C374.205 9.74747 375.024 10.196 375.576 11.0929C375.98 11.7407 376.182 12.4508 376.182 13.2232C376.182 13.5222 376.14 13.896 376.055 14.3444C375.736 15.665 375.151 16.7364 374.301 17.5586C373.365 18.4556 372.355 18.904 371.271 18.904C370.208 18.904 369.39 18.4431 368.816 17.5212C368.433 16.9232 368.242 16.263 368.242 15.5404C368.242 15.1916 368.284 14.7929 368.369 14.3444ZM366.36 68.4242C361.917 68.4242 359.695 66.5556 359.695 62.8182C359.695 62.0956 359.78 61.2983 359.95 60.4263L366.392 27.6869L373.121 24.3232H373.44L366.328 60.4263C366.116 61.5226 366.52 62.0707 367.54 62.0707H369.996L369.932 62.4444L366.36 68.4242Z" fill="#DC3545"/>
<path d="M384.888 27.6869L391.617 24.3232H391.936L387.599 46.3737C387.004 49.4633 386.706 51.9673 386.706 53.8859C386.706 54.8576 386.78 55.6923 386.929 56.3899C387.737 59.6788 389.332 61.3232 391.713 61.3232C394.115 61.3232 396.347 59.6788 398.41 56.3899C399.706 54.3468 400.812 51.0081 401.726 46.3737C402.279 43.6081 402.555 41.1788 402.555 39.0859C402.555 38.0892 402.492 37.1798 402.364 36.3576C401.854 33.1185 400.429 30.9633 398.091 29.8919L401.567 24.3232H401.886C405.223 26.0175 407.36 29.1444 408.296 33.704C408.657 35.4481 408.838 37.2919 408.838 39.2354C408.838 41.4529 408.593 43.8323 408.104 46.3737C407.126 51.4815 405.521 55.7047 403.289 59.0434C399.462 64.799 395.178 67.6768 390.437 67.6768C385.675 67.6768 382.539 64.799 381.03 59.0434C380.626 57.4987 380.424 55.7545 380.424 53.8111C380.424 51.6185 380.689 49.1394 381.221 46.3737L384.888 27.6869Z" fill="#DC3545"/>
<path d="M424.942 14.3444C425.197 13.0737 425.782 11.9899 426.696 11.0929C427.61 10.196 428.61 9.74747 429.694 9.74747C430.778 9.74747 431.597 10.196 432.149 11.0929C432.553 11.7407 432.755 12.4508 432.755 13.2232C432.755 13.5222 432.713 13.896 432.628 14.3444C432.309 15.665 431.724 16.7364 430.874 17.5586C429.938 18.4556 428.928 18.904 427.844 18.904C426.781 18.904 425.963 18.4431 425.389 17.5212C425.006 16.9232 424.815 16.263 424.815 15.5404C424.815 15.1916 424.857 14.7929 424.942 14.3444ZM422.933 68.4242C418.49 68.4242 416.268 66.5556 416.268 62.8182C416.268 62.0956 416.353 61.2983 416.523 60.4263L422.965 27.6869L429.694 24.3232H430.013L422.901 60.4263C422.689 61.5226 423.093 62.0707 424.113 62.0707H426.569L426.505 62.4444L422.933 68.4242Z" fill="#DC3545"/>
<path d="M454.632 60.5758C454.632 60.5758 457.257 60.5758 462.509 60.5758L462.445 60.9495L458.873 66.9293H443.949L444.012 66.5556L447.584 60.5758C450.582 58.4579 452.74 56.4148 454.058 54.4465C455.674 52.0047 456.768 49.3138 457.342 46.3737C457.938 43.3091 458.235 40.8175 458.235 38.899C458.235 37.8774 458.15 37.0303 457.98 36.3576C457.257 33.0687 455.663 31.4242 453.197 31.4242C450.794 31.4242 448.562 33.0687 446.5 36.3576C445.224 38.4007 444.129 41.7394 443.215 46.3737L439.548 65.0606L432.819 68.4242H432.5L436.837 46.3737C437.858 41.1663 439.452 36.9431 441.621 33.704C445.469 27.9485 449.753 25.0707 454.472 25.0707C459.32 25.0707 462.456 27.9485 463.88 33.704C464.305 35.4232 464.518 37.2795 464.518 39.2727C464.518 41.4902 464.263 43.8572 463.752 46.3737C462.562 52.4034 459.522 57.1374 454.632 60.5758Z" fill="#DC3545"/>
<path d="M482.536 67.6768C477.88 67.6768 474.744 64.799 473.128 59.0434C472.703 57.5236 472.49 55.7919 472.49 53.8485C472.49 51.5811 472.767 49.0896 473.319 46.3737C474.34 41.1663 475.934 36.9431 478.103 33.704C481.951 27.9485 486.235 25.0707 490.955 25.0707C495.674 25.0707 498.81 27.9485 500.362 33.704C500.787 35.2737 501 37.0428 501 39.0111C501 41.2286 500.734 43.6828 500.203 46.3737L497.173 61.697C496.174 66.8047 494.59 71.0279 492.422 74.3667C488.68 80.1222 484.396 83 479.57 83H471.884L471.948 82.6263L475.552 76.6465H480.814C483.45 76.6465 485.682 75.002 487.51 71.7131C488.892 69.2215 489.987 65.8828 490.795 61.697L493.825 46.3737C494.42 43.3589 494.718 40.8923 494.718 38.9737C494.718 37.9522 494.633 37.0801 494.463 36.3576C493.697 33.0687 492.103 31.4242 489.679 31.4242C487.255 31.4242 485.012 33.0811 482.95 36.3949C481.675 38.438 480.59 41.7643 479.697 46.3737C479.102 49.4384 478.804 51.9424 478.804 53.8859C478.804 54.8327 478.879 55.6673 479.028 56.3899C479.793 59.6539 481.366 61.2983 483.747 61.3232H486.203L486.107 61.697L482.536 67.6768Z" fill="#DC3545"/>
<path d="M51.8921 9L46.0244 38.7121C45.259 42.6488 44.8763 46 44.8763 48.7657C44.8763 50.5098 45.0251 52.0047 45.3228 53.2505C46.5984 58.6323 49.2027 61.3232 53.1359 61.3232C57.0264 61.3232 60.6725 58.6323 64.0741 53.2505C66.2002 49.8869 67.8797 45.0407 69.1128 38.7121C69.8781 34.7754 70.2608 31.4367 70.2608 28.696C70.2608 26.9768 70.112 25.4694 69.8144 24.1737C68.8151 19.8633 66.6254 16.6616 63.245 14.5687L66.7529 9H67.0718C71.3451 10.8438 74.279 14.93 75.8735 21.2586C76.3837 23.2768 76.6388 25.569 76.6388 28.1354C76.6388 31.1751 76.2562 34.7007 75.4908 38.7121C74.0664 45.8879 71.8978 51.7057 68.9852 56.1657C63.9466 63.8397 58.2383 67.6768 51.8603 67.6768C45.6098 67.6768 41.4428 63.9269 39.3593 56.4273C34.2995 63.9269 28.6443 67.6768 22.3938 67.6768C16.0371 67.6768 11.8382 63.8397 9.79725 56.1657C9.26575 54.1724 9 51.8926 9 49.3263C9 46.1869 9.39331 42.6488 10.1799 38.7121C11.6469 31.337 13.8048 25.8182 16.6536 22.1556C18.4395 19.8633 20.204 18.0943 21.9474 16.8485H12.8906L12.9863 16.4747L16.5579 10.4949H34.1932L34.0975 10.8687L30.5258 16.8485C27.4218 17.9946 24.6793 20.3367 22.2982 23.8747C19.6194 27.8364 17.706 32.7822 16.5579 38.7121C15.7926 42.6488 15.4099 46 15.4099 48.7657C15.4099 50.5098 15.5587 52.0047 15.8564 53.2505C17.132 58.6323 19.7363 61.3232 23.6694 61.3232C27.56 61.3232 31.2061 58.6323 34.6077 53.2505C36.7337 49.8869 38.4133 45.0407 39.6464 38.7121L44.8444 12.3636L51.5732 9H51.8921Z" stroke="#DC3545" stroke-width="6" mask="url(#path-1-outside-1_201_135)"/>
<path d="M88.3425 46.3737C87.7472 49.4633 87.4496 51.9673 87.4496 53.8859C87.4496 54.8576 87.524 55.6923 87.6728 56.3899C88.4807 59.6788 90.0752 61.3232 92.4563 61.3232C94.8374 61.3232 97.0697 59.6788 99.1532 56.3899C100.471 54.297 101.577 50.9582 102.47 46.3737C103.065 43.3091 103.363 40.8175 103.363 38.899C103.363 37.8774 103.278 37.0303 103.108 36.3576C102.385 33.0687 100.79 31.4242 98.3241 31.4242C95.8367 31.4242 93.5725 33.0936 91.5315 36.4323C90.2984 38.4505 89.2354 41.7643 88.3425 46.3737ZM81.9645 46.4111C82.985 41.1788 84.5795 36.9431 86.748 33.704C90.5961 27.9485 94.88 25.0707 99.5997 25.0707C104.319 25.0707 107.455 27.9485 109.007 33.704C109.432 35.2737 109.645 37.0428 109.645 39.0111C109.645 41.1788 109.379 43.633 108.848 46.3737C107.764 51.7057 106.169 55.929 104.064 59.0434C100.174 64.799 95.8792 67.6768 91.1807 67.6768C86.546 67.6768 83.4102 64.8114 81.7731 59.0808C81.3479 57.5609 81.1353 55.8667 81.1353 53.998C81.1353 51.8054 81.4117 49.2764 81.9645 46.4111Z" stroke="#DC3545" stroke-width="6" mask="url(#path-1-outside-1_201_135)"/>
<path d="M114.11 68.4242L118.447 46.3737C119.467 41.1663 121.062 36.9431 123.23 33.704C127.078 27.9485 131.362 25.0707 136.082 25.0707H140.387L140.291 25.4444L136.688 31.4242H134.806C132.404 31.4242 130.172 33.0687 128.109 36.3576C126.834 38.4007 125.739 41.7394 124.825 46.3737L121.157 65.0606L114.429 68.4242H114.11Z" stroke="#DC3545" stroke-width="6" mask="url(#path-1-outside-1_201_135)"/>
<path d="M173.33 9L165.963 46.3737C164.942 51.5811 163.348 55.8044 161.179 59.0434C157.331 64.799 153.037 67.6768 148.296 67.6768C143.64 67.6768 140.504 64.799 138.888 59.0434C138.463 57.5236 138.25 55.7795 138.25 53.8111C138.25 51.6185 138.516 49.1394 139.048 46.3737C140.238 40.3441 143.268 35.6101 148.136 32.1717H140.26L140.323 31.798L143.895 25.8182H158.82L158.756 26.1919L155.184 32.1717C152.208 34.2646 150.05 36.3077 148.71 38.301C147.116 40.6929 146.021 43.3838 145.426 46.3737C144.83 49.3886 144.533 51.8552 144.533 53.7737C144.533 54.7953 144.618 55.6673 144.788 56.3899C145.553 59.6788 147.148 61.3232 149.571 61.3232C151.995 61.3232 154.238 59.6663 156.3 56.3525C157.555 54.3343 158.639 51.0081 159.553 46.3737L166.282 12.3636L173.011 9H173.33Z" stroke="#DC3545" stroke-width="6" mask="url(#path-1-outside-1_201_135)"/>
<path d="M173.011 59.1556C173.011 59.1556 174.871 58.2337 178.591 56.3899H178.91C179.676 59.6788 181.27 61.3232 183.694 61.3232C186.011 61.3232 187.988 60.4263 189.625 58.6323C190.943 57.1872 191.783 55.5801 192.145 53.8111C192.251 53.2879 192.304 52.7896 192.304 52.3162C192.304 51.17 191.985 50.2232 191.347 49.4758C190.412 48.3795 188.903 47.632 186.819 47.2333C184.162 46.735 182.142 45.7882 180.76 44.3929C179.357 42.9727 178.655 41.1165 178.655 38.8242C178.655 38.002 178.751 37.0926 178.942 36.096C179.601 32.6825 181.525 29.8172 184.714 27.5C186.947 25.8805 189.306 25.0707 191.794 25.0707C195.982 25.0707 198.555 27.4377 199.511 32.1717L193.931 34.9374H193.612C193.101 32.5953 192.07 31.4242 190.518 31.4242C189.243 31.4242 188.137 31.798 187.202 32.5455C186.096 33.4175 185.373 34.6508 185.033 36.2455C184.948 36.6441 184.906 37.0054 184.906 37.3293C184.906 38.3259 185.256 39.0609 185.958 39.5343C186.936 40.2071 188.477 40.8175 190.582 41.3657C193.24 42.0384 195.259 43.1471 196.641 44.6919C197.981 46.1869 198.65 48.205 198.65 50.7465C198.65 51.7929 198.533 52.9515 198.299 54.2222C197.704 57.4364 195.876 60.5259 192.814 63.4909C189.923 66.2815 186.458 67.6768 182.418 67.6768C177.656 67.6768 174.52 64.8364 173.011 59.1556Z" stroke="#DC3545" stroke-width="6" mask="url(#path-1-outside-1_201_135)"/>
<path d="M230.636 68.4242L238.003 31.0505C239.023 25.868 240.618 21.6448 242.786 18.3808C246.613 12.6253 250.886 9.74747 255.606 9.74747H259.911L259.847 10.1212L256.244 16.101H254.362C252.002 16.101 249.77 17.7455 247.665 21.0343C246.538 22.8034 245.539 25.6438 244.668 29.5556H256.02L255.957 29.9293L252.385 35.9091H243.424L237.684 65.0606L230.955 68.4242H230.636Z" stroke="#DC3545" stroke-width="6" mask="url(#path-1-outside-1_201_135)"/>
<path d="M263.228 46.3737C262.632 49.4633 262.335 51.9673 262.335 53.8859C262.335 54.8576 262.409 55.6923 262.558 56.3899C263.366 59.6788 264.96 61.3232 267.341 61.3232C269.723 61.3232 271.955 59.6788 274.038 56.3899C275.356 54.297 276.462 50.9582 277.355 46.3737C277.95 43.3091 278.248 40.8175 278.248 38.899C278.248 37.8774 278.163 37.0303 277.993 36.3576C277.27 33.0687 275.675 31.4242 273.209 31.4242C270.722 31.4242 268.458 33.0936 266.417 36.4323C265.184 38.4505 264.121 41.7643 263.228 46.3737ZM256.85 46.4111C257.87 41.1788 259.465 36.9431 261.633 33.704C265.481 27.9485 269.765 25.0707 274.485 25.0707C279.205 25.0707 282.34 27.9485 283.892 33.704C284.318 35.2737 284.53 37.0428 284.53 39.0111C284.53 41.1788 284.264 43.633 283.733 46.3737C282.649 51.7057 281.054 55.929 278.949 59.0434C275.059 64.799 270.764 67.6768 266.066 67.6768C261.431 67.6768 258.295 64.8114 256.658 59.0808C256.233 57.5609 256.02 55.8667 256.02 53.998C256.02 51.8054 256.297 49.2764 256.85 46.4111Z" stroke="#DC3545" stroke-width="6" mask="url(#path-1-outside-1_201_135)"/>
<path d="M288.995 68.4242L293.332 46.3737C294.352 41.1663 295.947 36.9431 298.115 33.704C301.963 27.9485 306.247 25.0707 310.967 25.0707H315.272L315.177 25.4444L311.573 31.4242H309.691C307.289 31.4242 305.057 33.0687 302.995 36.3576C301.719 38.4007 300.624 41.7394 299.71 46.3737L296.043 65.0606L289.314 68.4242H288.995Z" stroke="#DC3545" stroke-width="6" mask="url(#path-1-outside-1_201_135)"/>
<path d="M347.226 68.4242C342.783 68.4242 340.561 66.5556 340.561 62.8182C340.561 62.0956 340.646 61.2983 340.816 60.4263L350.288 12.3636L357.016 9H357.335L347.194 60.4263C346.982 61.5226 347.386 62.0707 348.406 62.0707H350.862L350.798 62.4444L347.226 68.4242Z" stroke="#DC3545" stroke-width="6" mask="url(#path-1-outside-1_201_135)"/>
<path d="M368.369 14.3444C368.624 13.0737 369.209 11.9899 370.123 11.0929C371.037 10.196 372.037 9.74747 373.121 9.74747C374.205 9.74747 375.024 10.196 375.576 11.0929C375.98 11.7407 376.182 12.4508 376.182 13.2232C376.182 13.5222 376.14 13.896 376.055 14.3444C375.736 15.665 375.151 16.7364 374.301 17.5586C373.365 18.4556 372.355 18.904 371.271 18.904C370.208 18.904 369.39 18.4431 368.816 17.5212C368.433 16.9232 368.242 16.263 368.242 15.5404C368.242 15.1916 368.284 14.7929 368.369 14.3444ZM366.36 68.4242C361.917 68.4242 359.695 66.5556 359.695 62.8182C359.695 62.0956 359.78 61.2983 359.95 60.4263L366.392 27.6869L373.121 24.3232H373.44L366.328 60.4263C366.116 61.5226 366.52 62.0707 367.54 62.0707H369.996L369.932 62.4444L366.36 68.4242Z" stroke="#DC3545" stroke-width="6" mask="url(#path-1-outside-1_201_135)"/>
<path d="M384.888 27.6869L391.617 24.3232H391.936L387.599 46.3737C387.004 49.4633 386.706 51.9673 386.706 53.8859C386.706 54.8576 386.78 55.6923 386.929 56.3899C387.737 59.6788 389.332 61.3232 391.713 61.3232C394.115 61.3232 396.347 59.6788 398.41 56.3899C399.706 54.3468 400.812 51.0081 401.726 46.3737C402.279 43.6081 402.555 41.1788 402.555 39.0859C402.555 38.0892 402.492 37.1798 402.364 36.3576C401.854 33.1185 400.429 30.9633 398.091 29.8919L401.567 24.3232H401.886C405.223 26.0175 407.36 29.1444 408.296 33.704C408.657 35.4481 408.838 37.2919 408.838 39.2354C408.838 41.4529 408.593 43.8323 408.104 46.3737C407.126 51.4815 405.521 55.7047 403.289 59.0434C399.462 64.799 395.178 67.6768 390.437 67.6768C385.675 67.6768 382.539 64.799 381.03 59.0434C380.626 57.4987 380.424 55.7545 380.424 53.8111C380.424 51.6185 380.689 49.1394 381.221 46.3737L384.888 27.6869Z" stroke="#DC3545" stroke-width="6" mask="url(#path-1-outside-1_201_135)"/>
<path d="M424.942 14.3444C425.197 13.0737 425.782 11.9899 426.696 11.0929C427.61 10.196 428.61 9.74747 429.694 9.74747C430.778 9.74747 431.597 10.196 432.149 11.0929C432.553 11.7407 432.755 12.4508 432.755 13.2232C432.755 13.5222 432.713 13.896 432.628 14.3444C432.309 15.665 431.724 16.7364 430.874 17.5586C429.938 18.4556 428.928 18.904 427.844 18.904C426.781 18.904 425.963 18.4431 425.389 17.5212C425.006 16.9232 424.815 16.263 424.815 15.5404C424.815 15.1916 424.857 14.7929 424.942 14.3444ZM422.933 68.4242C418.49 68.4242 416.268 66.5556 416.268 62.8182C416.268 62.0956 416.353 61.2983 416.523 60.4263L422.965 27.6869L429.694 24.3232H430.013L422.901 60.4263C422.689 61.5226 423.093 62.0707 424.113 62.0707H426.569L426.505 62.4444L422.933 68.4242Z" stroke="#DC3545" stroke-width="6" mask="url(#path-1-outside-1_201_135)"/>
<path d="M454.632 60.5758C454.632 60.5758 457.257 60.5758 462.509 60.5758L462.445 60.9495L458.873 66.9293H443.949L444.012 66.5556L447.584 60.5758C450.582 58.4579 452.74 56.4148 454.058 54.4465C455.674 52.0047 456.768 49.3138 457.342 46.3737C457.938 43.3091 458.235 40.8175 458.235 38.899C458.235 37.8774 458.15 37.0303 457.98 36.3576C457.257 33.0687 455.663 31.4242 453.197 31.4242C450.794 31.4242 448.562 33.0687 446.5 36.3576C445.224 38.4007 444.129 41.7394 443.215 46.3737L439.548 65.0606L432.819 68.4242H432.5L436.837 46.3737C437.858 41.1663 439.452 36.9431 441.621 33.704C445.469 27.9485 449.753 25.0707 454.472 25.0707C459.32 25.0707 462.456 27.9485 463.88 33.704C464.305 35.4232 464.518 37.2795 464.518 39.2727C464.518 41.4902 464.263 43.8572 463.752 46.3737C462.562 52.4034 459.522 57.1374 454.632 60.5758Z" stroke="#DC3545" stroke-width="6" mask="url(#path-1-outside-1_201_135)"/>
<path d="M482.536 67.6768C477.88 67.6768 474.744 64.799 473.128 59.0434C472.703 57.5236 472.49 55.7919 472.49 53.8485C472.49 51.5811 472.767 49.0896 473.319 46.3737C474.34 41.1663 475.934 36.9431 478.103 33.704C481.951 27.9485 486.235 25.0707 490.955 25.0707C495.674 25.0707 498.81 27.9485 500.362 33.704C500.787 35.2737 501 37.0428 501 39.0111C501 41.2286 500.734 43.6828 500.203 46.3737L497.173 61.697C496.174 66.8047 494.59 71.0279 492.422 74.3667C488.68 80.1222 484.396 83 479.57 83H471.884L471.948 82.6263L475.552 76.6465H480.814C483.45 76.6465 485.682 75.002 487.51 71.7131C488.892 69.2215 489.987 65.8828 490.795 61.697L493.825 46.3737C494.42 43.3589 494.718 40.8923 494.718 38.9737C494.718 37.9522 494.633 37.0801 494.463 36.3576C493.697 33.0687 492.103 31.4242 489.679 31.4242C487.255 31.4242 485.012 33.0811 482.95 36.3949C481.675 38.438 480.59 41.7643 479.697 46.3737C479.102 49.4384 478.804 51.9424 478.804 53.8859C478.804 54.8327 478.879 55.6673 479.028 56.3899C479.793 59.6539 481.366 61.2983 483.747 61.3232H486.203L486.107 61.697L482.536 67.6768Z" stroke="#DC3545" stroke-width="6" mask="url(#path-1-outside-1_201_135)"/>
</g>
<defs>
<filter id="filter0_d_201_135" x="0" y="0" width="514" height="96" filterUnits="userSpaceOnUse" color-interpolation-filters="sRGB">
<feFlood flood-opacity="0" result="BackgroundImageFix"/>
<feColorMatrix in="SourceAlpha" type="matrix" values="0 0 0 0 0 0 0 0 0 0 0 0 0 0 0 0 0 0 127 0" result="hardAlpha"/>
<feOffset dx="2" dy="2"/>
<feGaussianBlur stdDeviation="4"/>
<feComposite in2="hardAlpha" operator="out"/>
<feColorMatrix type="matrix" values="0 0 0 0 0.95 0 0 0 0 0.383958 0 0 0 0 0.383958 0 0 0 0.25 0"/>
<feBlend mode="normal" in2="BackgroundImageFix" result="effect1_dropShadow_201_135"/>
<feBlend mode="normal" in="SourceGraphic" in2="effect1_dropShadow_201_135" result="shape"/>
</filter>
</defs>
</svg>
